<mxfile host="Electron" agent="Mozilla/5.0 (Macintosh; Intel Mac OS X 10_15_7) AppleWebKit/537.36 (KHTML, like Gecko) draw.io/27.0.9 Chrome/134.0.6998.205 Electron/35.4.0 Safari/537.36" version="27.0.9">
  <diagram name="페이지-1" id="ge7ynudYH0SWpXRpJTb-">
    <mxGraphModel dx="1426" dy="800" grid="1" gridSize="10" guides="1" tooltips="1" connect="1" arrows="1" fold="1" page="1" pageScale="1" pageWidth="827" pageHeight="1169" math="1" shadow="0">
      <root>
        <mxCell id="0" />
        <mxCell id="1" parent="0" />
        <mxCell id="z2jNvW2etzvbWKpsCLM5-1" value="" style="group;rotation=-166;" parent="1" vertex="1" connectable="0">
          <mxGeometry x="251.00395054638602" y="777.0028827345207" width="140" height="120" as="geometry" />
        </mxCell>
        <mxCell id="z2jNvW2etzvbWKpsCLM5-2" value="" style="rounded=0;whiteSpace=wrap;html=1;fillColor=#f8cecc;strokeColor=default;rotation=-166;" parent="z2jNvW2etzvbWKpsCLM5-1" vertex="1">
          <mxGeometry x="36" y="15" width="78.75" height="68.57142857142857" as="geometry" />
        </mxCell>
        <mxCell id="z2jNvW2etzvbWKpsCLM5-3" value="" style="rounded=0;whiteSpace=wrap;html=1;fillColor=#dae8fc;strokeColor=default;rotation=-166;" parent="z2jNvW2etzvbWKpsCLM5-1" vertex="1">
          <mxGeometry x="73" width="26.25" height="17.142857142857142" as="geometry" />
        </mxCell>
        <mxCell id="z2jNvW2etzvbWKpsCLM5-4" value="" style="rounded=0;whiteSpace=wrap;html=1;fillColor=#dae8fc;strokeColor=default;rotation=-166;" parent="z2jNvW2etzvbWKpsCLM5-1" vertex="1">
          <mxGeometry x="60" y="83" width="8.75" height="17.142857142857142" as="geometry" />
        </mxCell>
        <mxCell id="z2jNvW2etzvbWKpsCLM5-5" value="" style="rounded=0;whiteSpace=wrap;html=1;fillColor=#dae8fc;strokeColor=default;rotation=-166;" parent="z2jNvW2etzvbWKpsCLM5-1" vertex="1">
          <mxGeometry x="13" y="100" width="96.25" height="8.571428571428571" as="geometry" />
        </mxCell>
        <mxCell id="z2jNvW2etzvbWKpsCLM5-6" value="" style="shape=cylinder3;whiteSpace=wrap;html=1;boundedLbl=1;backgroundOutline=1;size=2.875;direction=south;fillColor=#f8cecc;strokeColor=default;rotation=-166;" parent="z2jNvW2etzvbWKpsCLM5-1" vertex="1">
          <mxGeometry x="-7" y="77" width="21.875" height="25.71428571428571" as="geometry" />
        </mxCell>
        <mxCell id="z2jNvW2etzvbWKpsCLM5-7" value="" style="shape=cylinder3;whiteSpace=wrap;html=1;boundedLbl=1;backgroundOutline=1;size=2.875;direction=south;fillColor=#f8cecc;strokeColor=default;rotation=-166;" parent="z2jNvW2etzvbWKpsCLM5-1" vertex="1">
          <mxGeometry x="107" y="105" width="21.875" height="25.71428571428571" as="geometry" />
        </mxCell>
        <mxCell id="z2jNvW2etzvbWKpsCLM5-8" value="" style="ellipse;whiteSpace=wrap;html=1;fillColor=#e1d5e7;strokeColor=#9673a6;" parent="1" vertex="1">
          <mxGeometry x="445" y="692" width="80" height="75" as="geometry" />
        </mxCell>
        <mxCell id="z2jNvW2etzvbWKpsCLM5-9" value="" style="shape=cylinder3;whiteSpace=wrap;html=1;boundedLbl=1;backgroundOutline=1;size=9.481481481481381;fillColor=#d5e8d4;strokeColor=#82b366;" parent="1" vertex="1">
          <mxGeometry x="525" y="312" width="140" height="90" as="geometry" />
        </mxCell>
        <mxCell id="z2jNvW2etzvbWKpsCLM5-10" value="Goal" style="text;html=1;align=center;verticalAlign=middle;whiteSpace=wrap;rounded=0;fontSize=30;fontColor=#B9E0A5;fontStyle=1" parent="1" vertex="1">
          <mxGeometry x="565" y="272" width="76" height="30" as="geometry" />
        </mxCell>
        <mxCell id="z2jNvW2etzvbWKpsCLM5-11" value="&lt;font style=&quot;color: rgb(234, 107, 102);&quot;&gt;Agent&lt;/font&gt;" style="text;html=1;align=center;verticalAlign=middle;whiteSpace=wrap;rounded=0;fontSize=30;fontColor=#B9E0A5;fontStyle=1" parent="1" vertex="1">
          <mxGeometry x="161" y="792" width="90" height="30" as="geometry" />
        </mxCell>
        <mxCell id="z2jNvW2etzvbWKpsCLM5-12" value="&lt;font style=&quot;color: rgb(181, 115, 157);&quot;&gt;Hazard&lt;/font&gt;" style="text;html=1;align=center;verticalAlign=middle;whiteSpace=wrap;rounded=0;fontSize=30;fontColor=#B9E0A5;fontStyle=1" parent="1" vertex="1">
          <mxGeometry x="465" y="652" width="106" height="30" as="geometry" />
        </mxCell>
        <mxCell id="z2jNvW2etzvbWKpsCLM5-13" value="" style="ellipse;whiteSpace=wrap;html=1;fillColor=#e1d5e7;strokeColor=#9673a6;" parent="1" vertex="1">
          <mxGeometry x="271" y="577" width="80" height="75" as="geometry" />
        </mxCell>
        <mxCell id="z2jNvW2etzvbWKpsCLM5-14" value="" style="group;rotation=-150;opacity=23;" parent="1" vertex="1" connectable="0">
          <mxGeometry x="340.9960145752998" y="657.0022762685365" width="140" height="120" as="geometry" />
        </mxCell>
        <mxCell id="z2jNvW2etzvbWKpsCLM5-15" value="" style="rounded=0;whiteSpace=wrap;html=1;fillColor=#f8cecc;strokeColor=default;rotation=-150;" parent="z2jNvW2etzvbWKpsCLM5-14" vertex="1">
          <mxGeometry x="39" y="17" width="78.75" height="68.57142857142857" as="geometry" />
        </mxCell>
        <mxCell id="z2jNvW2etzvbWKpsCLM5-16" value="" style="rounded=0;whiteSpace=wrap;html=1;fillColor=#dae8fc;strokeColor=default;rotation=-150;" parent="z2jNvW2etzvbWKpsCLM5-14" vertex="1">
          <mxGeometry x="87" y="6" width="26.25" height="17.142857142857142" as="geometry" />
        </mxCell>
        <mxCell id="z2jNvW2etzvbWKpsCLM5-17" value="" style="rounded=0;whiteSpace=wrap;html=1;fillColor=#dae8fc;strokeColor=default;rotation=-150;" parent="z2jNvW2etzvbWKpsCLM5-14" vertex="1">
          <mxGeometry x="52" y="80" width="8.75" height="17.142857142857142" as="geometry" />
        </mxCell>
        <mxCell id="z2jNvW2etzvbWKpsCLM5-18" value="" style="rounded=0;whiteSpace=wrap;html=1;fillColor=#dae8fc;strokeColor=default;rotation=-150;" parent="z2jNvW2etzvbWKpsCLM5-14" vertex="1">
          <mxGeometry x="1" y="96" width="96.25" height="8.571428571428571" as="geometry" />
        </mxCell>
        <mxCell id="z2jNvW2etzvbWKpsCLM5-19" value="" style="shape=cylinder3;whiteSpace=wrap;html=1;boundedLbl=1;backgroundOutline=1;size=2.875;direction=south;fillColor=#f8cecc;strokeColor=default;rotation=-150;" parent="z2jNvW2etzvbWKpsCLM5-14" vertex="1">
          <mxGeometry x="-13" y="58" width="21.875" height="25.71428571428571" as="geometry" />
        </mxCell>
        <mxCell id="z2jNvW2etzvbWKpsCLM5-20" value="" style="shape=cylinder3;whiteSpace=wrap;html=1;boundedLbl=1;backgroundOutline=1;size=2.875;direction=south;fillColor=#f8cecc;strokeColor=default;rotation=-150;" parent="z2jNvW2etzvbWKpsCLM5-14" vertex="1">
          <mxGeometry x="89" y="116" width="21.875" height="25.71428571428571" as="geometry" />
        </mxCell>
        <mxCell id="z2jNvW2etzvbWKpsCLM5-21" value="" style="group;rotation=-165;opacity=23;" parent="1" vertex="1" connectable="0">
          <mxGeometry x="431.0017782649107" y="512.0015242270663" width="140" height="120" as="geometry" />
        </mxCell>
        <mxCell id="z2jNvW2etzvbWKpsCLM5-22" value="" style="rounded=0;whiteSpace=wrap;html=1;fillColor=#f8cecc;strokeColor=default;rotation=-165;" parent="z2jNvW2etzvbWKpsCLM5-21" vertex="1">
          <mxGeometry x="36" y="15" width="78.75" height="68.57142857142857" as="geometry" />
        </mxCell>
        <mxCell id="z2jNvW2etzvbWKpsCLM5-23" value="" style="rounded=0;whiteSpace=wrap;html=1;fillColor=#dae8fc;strokeColor=default;rotation=-165;" parent="z2jNvW2etzvbWKpsCLM5-21" vertex="1">
          <mxGeometry x="74" width="26.25" height="17.142857142857142" as="geometry" />
        </mxCell>
        <mxCell id="z2jNvW2etzvbWKpsCLM5-24" value="" style="rounded=0;whiteSpace=wrap;html=1;fillColor=#dae8fc;strokeColor=default;rotation=-165;" parent="z2jNvW2etzvbWKpsCLM5-21" vertex="1">
          <mxGeometry x="60" y="83" width="8.75" height="17.142857142857142" as="geometry" />
        </mxCell>
        <mxCell id="z2jNvW2etzvbWKpsCLM5-25" value="" style="rounded=0;whiteSpace=wrap;html=1;fillColor=#dae8fc;strokeColor=default;rotation=-165;" parent="z2jNvW2etzvbWKpsCLM5-21" vertex="1">
          <mxGeometry x="12" y="100" width="96.25" height="8.571428571428571" as="geometry" />
        </mxCell>
        <mxCell id="z2jNvW2etzvbWKpsCLM5-26" value="" style="shape=cylinder3;whiteSpace=wrap;html=1;boundedLbl=1;backgroundOutline=1;size=2.875;direction=south;fillColor=#f8cecc;strokeColor=default;rotation=-165;" parent="z2jNvW2etzvbWKpsCLM5-21" vertex="1">
          <mxGeometry x="-8" y="76" width="21.875" height="25.71428571428571" as="geometry" />
        </mxCell>
        <mxCell id="z2jNvW2etzvbWKpsCLM5-27" value="" style="shape=cylinder3;whiteSpace=wrap;html=1;boundedLbl=1;backgroundOutline=1;size=2.875;direction=south;fillColor=#f8cecc;strokeColor=default;rotation=-165;" parent="z2jNvW2etzvbWKpsCLM5-21" vertex="1">
          <mxGeometry x="106" y="106" width="21.875" height="25.71428571428571" as="geometry" />
        </mxCell>
        <mxCell id="z2jNvW2etzvbWKpsCLM5-28" value="" style="group;rotation=-150;opacity=23;" parent="1" vertex="1" connectable="0">
          <mxGeometry x="471.0039505463859" y="372.00288273452054" width="140" height="120" as="geometry" />
        </mxCell>
        <mxCell id="z2jNvW2etzvbWKpsCLM5-29" value="" style="rounded=0;whiteSpace=wrap;html=1;fillColor=#f8cecc;strokeColor=default;rotation=-150;" parent="z2jNvW2etzvbWKpsCLM5-28" vertex="1">
          <mxGeometry x="39" y="17" width="78.75" height="68.57142857142857" as="geometry" />
        </mxCell>
        <mxCell id="z2jNvW2etzvbWKpsCLM5-30" value="" style="rounded=0;whiteSpace=wrap;html=1;fillColor=#dae8fc;strokeColor=default;rotation=-150;" parent="z2jNvW2etzvbWKpsCLM5-28" vertex="1">
          <mxGeometry x="87" y="6" width="26.25" height="17.142857142857142" as="geometry" />
        </mxCell>
        <mxCell id="z2jNvW2etzvbWKpsCLM5-31" value="" style="rounded=0;whiteSpace=wrap;html=1;fillColor=#dae8fc;strokeColor=default;rotation=-150;" parent="z2jNvW2etzvbWKpsCLM5-28" vertex="1">
          <mxGeometry x="52" y="80" width="8.75" height="17.142857142857142" as="geometry" />
        </mxCell>
        <mxCell id="z2jNvW2etzvbWKpsCLM5-32" value="" style="rounded=0;whiteSpace=wrap;html=1;fillColor=#dae8fc;strokeColor=default;rotation=-150;" parent="z2jNvW2etzvbWKpsCLM5-28" vertex="1">
          <mxGeometry x="1" y="96" width="96.25" height="8.571428571428571" as="geometry" />
        </mxCell>
        <mxCell id="z2jNvW2etzvbWKpsCLM5-33" value="" style="shape=cylinder3;whiteSpace=wrap;html=1;boundedLbl=1;backgroundOutline=1;size=2.875;direction=south;fillColor=#f8cecc;strokeColor=default;rotation=-150;" parent="z2jNvW2etzvbWKpsCLM5-28" vertex="1">
          <mxGeometry x="-13" y="58" width="21.875" height="25.71428571428571" as="geometry" />
        </mxCell>
        <mxCell id="z2jNvW2etzvbWKpsCLM5-34" value="" style="shape=cylinder3;whiteSpace=wrap;html=1;boundedLbl=1;backgroundOutline=1;size=2.875;direction=south;fillColor=#f8cecc;strokeColor=default;rotation=-150;" parent="z2jNvW2etzvbWKpsCLM5-28" vertex="1">
          <mxGeometry x="89" y="116" width="21.875" height="25.71428571428571" as="geometry" />
        </mxCell>
        <mxCell id="z2jNvW2etzvbWKpsCLM5-63" value="" style="curved=1;endArrow=classic;html=1;rounded=0;entryX=0.5;entryY=1;entryDx=0;entryDy=0;exitX=0.5;exitY=0;exitDx=0;exitDy=0;" parent="1" source="z2jNvW2etzvbWKpsCLM5-4" target="z2jNvW2etzvbWKpsCLM5-30" edge="1">
          <mxGeometry width="50" height="50" relative="1" as="geometry">
            <mxPoint x="311" y="882" as="sourcePoint" />
            <mxPoint x="371" y="582" as="targetPoint" />
            <Array as="points">
              <mxPoint x="331" y="812" />
              <mxPoint x="351" y="758" />
              <mxPoint x="391" y="758" />
              <mxPoint x="431" y="698" />
              <mxPoint x="441" y="678" />
              <mxPoint x="461" y="648" />
              <mxPoint x="501" y="602" />
              <mxPoint x="511" y="538" />
              <mxPoint x="521" y="508" />
              <mxPoint x="521" y="458" />
            </Array>
          </mxGeometry>
        </mxCell>
        <mxCell id="z2jNvW2etzvbWKpsCLM5-65" style="edgeStyle=orthogonalEdgeStyle;rounded=0;orthogonalLoop=1;jettySize=auto;html=1;exitX=0.5;exitY=1;exitDx=0;exitDy=0;" parent="1" edge="1">
          <mxGeometry relative="1" as="geometry">
            <mxPoint x="381" y="542" as="sourcePoint" />
            <mxPoint x="381" y="542" as="targetPoint" />
          </mxGeometry>
        </mxCell>
        <mxCell id="z2jNvW2etzvbWKpsCLM5-68" value="&lt;font style=&quot;color: rgb(0, 0, 0);&quot;&gt;Constrained RL&lt;/font&gt;" style="text;html=1;align=center;verticalAlign=middle;whiteSpace=wrap;rounded=0;fontSize=30;fontColor=#B9E0A5;fontStyle=1" parent="1" vertex="1">
          <mxGeometry x="284" y="200" width="260" height="30" as="geometry" />
        </mxCell>
      </root>
    </mxGraphModel>
  </diagram>
</mxfile>
